<svg width="104" height="104" viewBox="0 0 104 104" fill="none" xmlns="http://www.w3.org/2000/svg">
<circle cx="52" cy="52" r="48" fill="white"/>
<path fill-rule="evenodd" clip-rule="evenodd" d="M62.5753 62.6378C59.8633 65.3339 56.1262 67 52 67C43.7157 67 37 60.2843 37 52C37 43.7157 43.7157 37 52 37C56.1262 37 59.8633 38.6661 62.5753 41.3622L68.9393 34.9982C64.5986 30.6734 58.6115 28 52 28C38.7452 28 28 38.7452 28 52C28 65.2548 38.7452 76 52 76C58.6115 76 64.5986 73.3266 68.9393 69.0018L62.5753 62.6378Z" fill="#D52D43"/>
<path fill-rule="evenodd" clip-rule="evenodd" d="M72.5172 39.5415L60.0588 51.9999L72.5172 64.4583C74.7272 60.8266 76 56.5619 76 51.9999C76 47.4379 74.7272 43.1732 72.5172 39.5415Z" fill="#5A4EC0"/>
<rect x="2" y="2" width="100" height="100" rx="50" stroke="#D7D7D7" stroke-width="4"/>
</svg>
